<svg xmlns="http://www.w3.org/2000/svg" id="Layer_1" enable-background="new 0 0 512 512" height="512" viewBox="0 0 512 512" width="512"><path d="m256 0c-141.159 0-256 114.842-256 256s114.841 256 256 256 256-114.841 256-256-114.841-256-256-256zm0 418c-89.327 0-162-72.673-162-162s72.673-162 162-162c89.328.001 162 72.674 162 162 0 89.327-72.672 162-162 162zm0-299.999c-76.094 0-138 61.906-138 138s61.906 138 138 138 138-61.907 138-138.001-61.907-137.999-138-137.999zm12 220.158v10.458c0 6.627-5.372 12-12 12s-12-5.373-12-12v-10.431c-18.133-3.308-33.263-14.017-40.203-29.142-2.765-6.023-.122-13.147 5.901-15.912 6.023-2.763 13.148-.121 15.911 5.902 4.456 9.711 16.669 16.235 30.391 16.235 17.367 0 32.039-10.823 32.039-23.635s-14.671-23.634-32.039-23.634c-30.9 0-56.039-21.369-56.039-47.635 0-22.765 18.888-41.84 44.039-46.524v-10.459c0-6.627 5.372-12 12-12s12 5.373 12 12v10.455c20.118 3.745 36.641 16.714 42.118 34.077 1.993 6.32-1.514 13.06-7.834 15.054-6.322 1.993-13.061-1.515-15.055-7.834-3.364-10.665-16.498-18.405-31.229-18.405-17.367 0-32.039 10.823-32.039 23.635s14.672 23.636 32.039 23.636c30.9 0 56.039 21.369 56.039 47.635.001 22.765-18.887 41.84-44.039 46.524z" fill="#ffffff"/></svg>