<svg xmlns="http://www.w3.org/2000/svg" id="pen" enable-background="new 0 0 512 512" height="512" viewBox="0 0 512 512" width="512"><g fill="#ffffff"><path d="m481.704 140.333-134.27 134.271-85.09-85.084 140.362-140.36c-41.414-29.425-92.038-46.726-146.708-46.726-140.043 0-253.565 113.523-253.565 253.568 0 140.039 113.522 253.564 253.565 253.564 140.04 0 253.569-113.525 253.569-253.564 0-41.67-10.056-80.988-27.863-115.669zm-299.586 218.12-3.621-3.617 30.34-30.337 3.619 3.616zm38.834-25.173-17.258-17.26 54.152-122.001 85.089 85.085z" fill="#ffffff"/><path d="m331.752 167.169 38.025 38.031 94.229-94.222c-10.331-14.794-22.203-28.428-35.378-40.684z" fill="#ffffff"/></g></svg>