<svg xmlns="http://www.w3.org/2000/svg" id="Circular_Glyph" height="512" viewBox="0 0 64 64" width="512" data-name="Circular Glyph"><path d="m37.56 36.55-3.63-3.63a2.14366 2.14366 0 0 0 -1.22-2.94v-6.56a.71007.71007 0 0 0 -1.42 0v6.56a2.13862 2.13862 0 1 0 1.63 3.95l3.63 3.63a.71418.71418 0 1 0 1.01-1.01zm-5.56-3.84a.7101.7101 0 0 1 0-1.42.7101.7101 0 0 1 0 1.42z" fill="#ffffff"/><path d="m32 0a32 32 0 1 0 32 32 32.004 32.004 0 0 0 -32-32zm-11.31 15.48a20.098 20.098 0 0 1 24.25 1.25v-2.42a.71507.71507 0 0 1 1.43 0v4.04a.72355.72355 0 0 1 -.73.71h-4.03a.715.715 0 1 1 0-1.43h2.17a18.64732 18.64732 0 0 0 -22.28-.97.71578.71578 0 0 1 -.81-1.18zm25.61 16.52c-.02 13.58-17.4 19.48-25.65 8.69-7.21-9.26-.38-23.07 11.35-22.99a14.39406 14.39406 0 0 1 14.3 14.3zm-30.82 11.31a20.09808 20.09808 0 0 1 1.25-24.25h-2.42a.71515.71515 0 0 1 -.01-1.43h4.05a.717.717 0 0 1 .71.73v4.03a.71507.71507 0 0 1 -1.43 0v-2.17a18.56787 18.56787 0 0 0 -.97 22.28.71573.71573 0 0 1 -1.18.81zm27.83 5.21a20.0979 20.0979 0 0 1 -24.25-1.25v2.42a.71507.71507 0 0 1 -1.43 0v-4.04a.7235.7235 0 0 1 .73-.71h4.03a.715.715 0 1 1 0 1.43h-2.17a18.64732 18.64732 0 0 0 22.28.97.71578.71578 0 0 1 .81 1.18zm6.39-3.58a.71522.71522 0 0 1 0 1.43h-4.05a2.6245 2.6245 0 0 1 -.27-.06.7058.7058 0 0 1 -.44-.67v-4.03a.71507.71507 0 0 1 1.43 0v2.17a18.63211 18.63211 0 0 0 .97-22.28.71578.71578 0 0 1 1.18-.81 20.09808 20.09808 0 0 1 -1.25 24.25z" fill="#ffffff"/></svg>